<svg width="34" height="34" viewBox="0 0 34 34" fill="none" xmlns="http://www.w3.org/2000/svg">
<g id="ri:instagram-fill">
<path id="Vector" d="M18.3357 2.83475C19.3627 2.83078 20.3898 2.84117 21.4165 2.86592L21.6895 2.87583C22.0048 2.88717 22.3158 2.90133 22.6916 2.91833C24.1891 2.98917 25.2109 3.22717 26.1074 3.57708C27.0363 3.93692 27.8188 4.42425 28.6013 5.21192C29.3168 5.91969 29.8706 6.77584 30.2241 7.72083C30.5717 8.62325 30.8081 9.65317 30.8785 11.1605C30.8954 11.5373 30.9095 11.8518 30.9207 12.1692L30.9292 12.444C30.9542 13.477 30.965 14.5103 30.9615 15.5437L30.963 16.6005V18.4563C30.9664 19.4901 30.9556 20.5239 30.9306 21.5574L30.9221 21.8323C30.9109 22.1496 30.8968 22.4627 30.8799 22.8409C30.8095 24.3482 30.5703 25.3767 30.2241 26.2792C29.8717 27.2252 29.3178 28.082 28.6013 28.7895C27.8976 29.5096 27.0466 30.067 26.1074 30.4229C25.2109 30.7728 24.1891 31.0108 22.6916 31.0817C22.3158 31.0987 22.0048 31.1128 21.6895 31.1242L21.4165 31.1327C20.3898 31.1579 19.3627 31.1687 18.3357 31.1653L17.2858 31.1667H15.4435C14.4164 31.1702 13.3894 31.1593 12.3627 31.1341L12.0896 31.1256C11.7555 31.1134 11.4215 31.0992 11.0875 31.0831C9.59007 31.0123 8.56829 30.7714 7.67036 30.4229C6.73118 30.0678 5.88048 29.5103 5.17784 28.7895C4.46154 28.0816 3.90727 27.2249 3.5537 26.2792C3.20607 25.3767 2.96962 24.3482 2.89925 22.8409C2.88358 22.5048 2.8695 22.1685 2.85703 21.8323L2.84999 21.5574C2.82405 20.5239 2.81232 19.4901 2.81481 18.4563V15.5437C2.81088 14.5104 2.8212 13.477 2.84577 12.444L2.85562 12.1692C2.86688 11.8518 2.88096 11.5373 2.89784 11.1605C2.96821 9.65175 3.20466 8.62467 3.55229 7.72083C3.90607 6.77538 4.46142 5.91946 5.17925 5.21333C5.8814 4.4919 6.73157 3.93348 7.67036 3.57708C8.56829 3.22717 9.58866 2.98917 11.0875 2.91833L12.0896 2.87583L12.3627 2.86875C13.3889 2.84265 14.4155 2.83084 15.4421 2.83333L18.3357 2.83475ZM16.8889 9.91808C15.9565 9.90481 15.0308 10.0782 14.1655 10.4282C13.3003 10.7782 12.5128 11.2977 11.8487 11.9567C11.1847 12.6157 10.6574 13.401 10.2976 14.2669C9.93766 15.1328 9.75233 16.0621 9.75233 17.0007C9.75233 17.9393 9.93766 18.8686 10.2976 19.7345C10.6574 20.6004 11.1847 21.3857 11.8487 22.0447C12.5128 22.7037 13.3003 23.2233 14.1655 23.5732C15.0308 23.9232 15.9565 24.0966 16.8889 24.0833C18.7552 24.0833 20.5451 23.3371 21.8648 22.0087C23.1845 20.6803 23.9259 18.8786 23.9259 17C23.9259 15.1214 23.1845 13.3197 21.8648 11.9913C20.5451 10.6629 18.7552 9.91808 16.8889 9.91808ZM16.8889 12.7514C17.4497 12.741 18.007 12.8432 18.5282 13.052C19.0494 13.2609 19.524 13.5722 19.9243 13.9677C20.3247 14.3632 20.6427 14.8351 20.8598 15.3557C21.0769 15.8764 21.1888 16.4353 21.1889 17C21.189 17.5646 21.0773 18.1236 20.8603 18.6444C20.6434 19.1651 20.3255 19.637 19.9254 20.0327C19.5252 20.4284 19.0506 20.7398 18.5295 20.9488C18.0084 21.1578 17.4512 21.2602 16.8903 21.25C15.7705 21.25 14.6965 20.8022 13.9047 20.0052C13.1129 19.2082 12.6681 18.1272 12.6681 17C12.6681 15.8728 13.1129 14.7918 13.9047 13.9948C14.6965 13.1978 15.7705 12.75 16.8903 12.75L16.8889 12.7514ZM24.2778 7.79308C23.8237 7.81138 23.3943 8.0058 23.0795 8.33563C22.7647 8.66546 22.5889 9.10511 22.5889 9.5625C22.5889 10.0199 22.7647 10.4595 23.0795 10.7894C23.3943 11.1192 23.8237 11.3136 24.2778 11.3319C24.7444 11.3319 25.1918 11.1453 25.5218 10.8133C25.8517 10.4812 26.037 10.0307 26.037 9.56108C26.037 9.09143 25.8517 8.64101 25.5218 8.30892C25.1918 7.97682 24.7444 7.79025 24.2778 7.79025V7.79308Z" fill="black"/>
</g>
</svg>
