<svg width="36" height="33" viewBox="0 0 36 33" fill="none" xmlns="http://www.w3.org/2000/svg">
<g id="mdi:linkedin">
<path id="Vector" d="M28.5 4.125C29.2956 4.125 30.0587 4.41473 30.6213 4.93046C31.1839 5.44618 31.5 6.14565 31.5 6.875V26.125C31.5 26.8543 31.1839 27.5538 30.6213 28.0695C30.0587 28.5853 29.2956 28.875 28.5 28.875H7.5C6.70435 28.875 5.94129 28.5853 5.37868 28.0695C4.81607 27.5538 4.5 26.8543 4.5 26.125V6.875C4.5 6.14565 4.81607 5.44618 5.37868 4.93046C5.94129 4.41473 6.70435 4.125 7.5 4.125H28.5ZM27.75 25.4375V18.15C27.75 16.9612 27.2348 15.821 26.3178 14.9804C25.4007 14.1398 24.1569 13.6675 22.86 13.6675C21.585 13.6675 20.1 14.3825 19.38 15.455V13.9288H15.195V25.4375H19.38V18.6587C19.38 17.6 20.31 16.7338 21.465 16.7338C22.022 16.7338 22.5561 16.9366 22.9499 17.2976C23.3438 17.6586 23.565 18.1482 23.565 18.6587V25.4375H27.75ZM10.32 11.77C10.9883 11.77 11.6293 11.5266 12.1019 11.0934C12.5745 10.6602 12.84 10.0727 12.84 9.46C12.84 8.18125 11.715 7.13625 10.32 7.13625C9.64768 7.13625 9.00289 7.38107 8.52748 7.81686C8.05208 8.25265 7.785 8.8437 7.785 9.46C7.785 10.7387 8.925 11.77 10.32 11.77ZM12.405 25.4375V13.9288H8.25V25.4375H12.405Z" fill="black"/>
</g>
</svg>
